<svg version="1.1" xmlns="http://www.w3.org/2000/svg" viewBox="0 0 196.0020168494848 317.38160806280825" width="196.0020168494848" height="317.38160806280825">
    <!-- svg-source:excalidraw -->

    <defs>
        <style class="style-fonts">
            @font-face {
            font-family: "Virgil";
            src: url("https://excalidraw.com/Virgil.woff2");
            }
            @font-face {
            font-family: "Cascadia";
            src: url("https://excalidraw.com/Cascadia.woff2");
            }
            @font-face {
            font-family: "Assistant";
            src: url("https://excalidraw.com/Assistant-Regular.woff2");
            }
        </style>

    </defs>
    <rect x="0" y="0" width="196.0020168494848" height="317.38160806280825" fill="#ffffff"></rect><g stroke-linecap="round" transform="translate(16.4340367948289 10) rotate(0 55.41898986668457 52.34015709631288)"><path d="M12.34 20 C12.34 20, 12.34 20, 12.34 20 M12.34 20 C12.34 20, 12.34 20, 12.34 20 M3.24 44.57 C15.94 26.85, 30.98 13.26, 38.5 4.08 M0.99 41.79 C11.47 33.43, 18.75 24.25, 36.77 5.41 M3.62 57.55 C20.01 35.58, 31.32 19.94, 52.92 0.33 M3.88 55.17 C16.97 40.97, 30.96 25.43, 48.57 1.43 M5.96 65.01 C16.7 55.05, 24.21 36.22, 61.11 1.5 M3.12 66.1 C22.05 42.85, 43.39 19.87, 61.3 -1.51 M8.49 78.16 C27.8 53.11, 42.78 34.2, 68.96 1.39 M4.78 76.74 C22.05 57.84, 36.09 41.28, 70.21 1.9 M8.25 81.16 C36.18 54.67, 60.12 28.11, 74.83 3.68 M10.47 82.56 C28.4 58.82, 46.4 38.24, 79.09 3.95 M14.89 89.09 C44.39 58.34, 60.04 37.46, 82.86 9.73 M16.42 85.08 C44.41 57.24, 71.96 25.79, 86.71 10.51 M25.79 92.48 C45.21 67.36, 67.15 42.93, 91.46 14.11 M21.86 91.12 C42.17 68.43, 62.88 45.24, 92.65 11.23 M33.86 96.97 C41.7 83.01, 61.97 62.39, 95.8 18.29 M30.05 95.24 C43.81 80.22, 59.12 61.35, 97.01 20.08 M39.47 96.67 C59.49 70.12, 80.86 48.82, 102.89 30.13 M37.47 99.85 C56.29 77.6, 75.85 58.72, 100.72 25.5 M45.56 102.09 C67.68 80.67, 88.04 56.9, 107.55 33.72 M46.17 105.86 C68.7 78.54, 93.54 50.5, 106.79 35.02 M56.73 100.64 C75.74 80.99, 100.49 61.3, 110.18 42.79 M56.12 103.93 C70.91 87.15, 80.19 74.17, 107.3 43.47 M69.97 99.95 C78.53 89.45, 88.09 76.6, 107.88 53.24 M69.21 100.62 C84.2 83.92, 98.94 64.87, 107.82 56.18 M92.82 90.52 C95.26 88.34, 97.26 81.69, 103.13 76.2 M88.6 91.63 C91.97 85.56, 95.47 82.72, 101.3 76.85" stroke="#ffffff" stroke-width="1" fill="none"></path><path d="M91.09 11.04 C98.28 15.85, 103.01 27.87, 105.97 35.99 C108.92 44.1, 110.19 51.68, 108.8 59.74 C107.42 67.81, 103.51 77.71, 97.67 84.38 C91.83 91.04, 82.41 96.47, 73.77 99.75 C65.12 103.03, 54.5 105.4, 45.81 104.06 C37.11 102.71, 28.69 97, 21.59 91.68 C14.48 86.35, 6.39 80.07, 3.19 72.1 C-0.02 64.14, 0.79 52.61, 2.35 43.89 C3.9 35.17, 6.59 26.5, 12.53 19.78 C18.48 13.06, 29.44 7.02, 38 3.56 C46.57 0.11, 54.06 -3.21, 63.92 -0.98 C73.78 1.26, 90.88 12.67, 97.18 16.97 C103.47 21.27, 102.56 23.98, 101.67 24.83 M33.98 3.65 C41.84 0.29, 57.13 -0.11, 66.01 1.28 C74.89 2.68, 80.67 6.91, 87.26 12.02 C93.85 17.12, 101.44 23.79, 105.57 31.93 C109.7 40.07, 113.24 51.55, 112.03 60.88 C110.82 70.2, 104.82 81.2, 98.31 87.91 C91.81 94.61, 81.57 98.55, 73 101.1 C64.44 103.65, 55.16 104.94, 46.92 103.2 C38.68 101.47, 31.19 95.58, 23.57 90.67 C15.95 85.75, 5.28 81.92, 1.2 73.72 C-2.89 65.51, -2.79 50.04, -0.94 41.44 C0.92 32.84, 6.52 28.17, 12.34 22.11 C18.17 16.06, 29.79 7.97, 34.02 5.11 C38.24 2.24, 37.49 4.21, 37.71 4.9" stroke="#343a40" stroke-width="2" fill="none"></path></g><g stroke-linecap="round"><g transform="translate(36.14369023194831 100.52280715566098) rotate(0 13.512000700589397 57.877316053878985)" fill-rule="evenodd"><path d="M1.06 -0.72 C-3.48 7.18, -21.94 31.66, -23.51 50.72 C-25.09 69.78, -19.7 104.63, -8.39 113.65 C2.93 122.67, 37.27 115.38, 44.39 104.83 C51.51 94.28, 32.76 65.57, 34.34 50.35 C35.93 35.13, 56.04 20.71, 53.9 13.52 C51.76 6.33, 29.94 9.79, 21.51 7.2 C13.09 4.61, 7.28 -0.84, 3.35 -2.02" stroke="none" stroke-width="0" fill="#ffffff" fill-rule="evenodd"></path><path d="M1.95 -1.5 C-1.85 6.68, -21.84 28.07, -23.95 47.27 C-26.06 66.47, -23.13 104.52, -10.71 113.69 C1.7 122.87, 43.21 113.24, 50.56 102.32 C57.92 91.4, 33.43 62.85, 33.43 48.17 C33.43 33.5, 53.32 20.87, 50.56 14.27 C47.8 7.68, 25.27 10.6, 16.88 8.61 C8.49 6.62, 3.22 3.82, 0.21 2.34 M-0.44 3.85 C-4.36 12.7, -23.12 32.39, -25.28 51.03 C-27.43 69.67, -26.31 106.85, -13.36 115.68 C-0.41 124.51, 43.97 115.14, 52.43 104 C60.9 92.87, 37.37 64.33, 37.43 48.87 C37.48 33.41, 56.15 18.5, 52.76 11.24 C49.37 3.99, 26.23 6.73, 17.09 5.32 C7.94 3.91, 0.27 4.31, -2.1 2.8" stroke="#343a40" stroke-width="2" fill="none"></path></g></g><mask></mask><g transform="translate(95.20699796741246 75.0621707075552) rotate(0 0.00007389198663076968 0.00007389198648866113)" stroke="none"><path fill="#343a40" d="M 1.57,-1.57 Q 1.57,-1.57 1.77,-1.27 1.98,-0.98 2.09,-0.64 2.20,-0.29 2.19,0.05 2.18,0.41 2.05,0.75 1.93,1.09 1.70,1.37 1.48,1.65 1.18,1.84 0.87,2.04 0.52,2.12 0.18,2.21 -0.17,2.18 -0.53,2.15 -0.86,2.01 -1.19,1.87 -1.46,1.63 -1.73,1.39 -1.90,1.07 -2.08,0.76 -2.15,0.41 -2.21,0.05 -2.17,-0.29 -2.12,-0.65 -1.96,-0.97 -1.80,-1.29 -1.54,-1.54 -1.29,-1.80 -0.97,-1.96 -0.65,-2.12 -0.29,-2.17 0.06,-2.21 0.41,-2.15 0.76,-2.08 1.07,-1.90 1.39,-1.73 1.63,-1.46 1.87,-1.19 2.01,-0.86 2.15,-0.53 2.18,-0.17 2.21,0.18 2.12,0.52 2.03,0.87 1.84,1.18 1.65,1.48 1.37,1.70 1.09,1.93 0.75,2.05 0.41,2.18 0.05,2.19 -0.30,2.20 -0.64,2.09 -0.98,1.98 -1.27,1.77 -1.57,1.56 -1.57,1.57 -1.57,1.57 -1.73,1.35 -1.90,1.14 -2.01,0.90 -2.12,0.66 -2.16,0.39 -2.21,0.13 -2.20,-0.13 -2.18,-0.40 -2.10,-0.65 -2.02,-0.91 -1.88,-1.14 -1.74,-1.36 -1.55,-1.55 -1.36,-1.74 -1.14,-1.88 -0.91,-2.02 -0.65,-2.10 -0.40,-2.18 -0.13,-2.20 0.13,-2.21 0.39,-2.16 0.66,-2.12 0.90,-2.01 1.14,-1.90 1.35,-1.73 1.57,-1.57 1.57,-1.57 L 1.57,-1.57 Z"></path></g><g transform="translate(116.15893160753058 77.92443070630952) rotate(0 0 -1.0659164007400648)" stroke="none"><path d="M0.26 -1.1 C0.26 -1.1, 0.26 -1.1, 0.26 -1.1 M0.26 -1.1 C0.26 -1.1, 0.26 -1.1, 0.26 -1.1 M0 0 C0 0, 0 0, 0 0 M0 0 C0 0, 0 0, 0 0" stroke="#ffffff" stroke-width="0.5" fill="none"></path><path fill="#343a40" d="M 2.12,-0.66 Q 2.12,-0.66 2.15,-0.13 2.18,0.40 1.96,0.88 1.74,1.36 1.32,1.69 0.91,2.02 0.38,2.12 -0.13,2.21 -0.64,2.05 -1.14,1.90 -1.52,1.52 -1.90,1.14 -2.05,0.64 -2.21,0.13 -2.12,-0.38 -2.02,-0.91 -1.69,-1.32 -1.36,-1.74 -0.88,-1.96 -0.39,-2.18 0.13,-2.15 0.66,-2.11 1.11,-1.84 1.57,-1.56 1.84,-1.11 L 2.12,-0.66 Z"></path></g><g stroke-linecap="round"><g transform="translate(92.28854030750244 96.99471052785208) rotate(180.707313349537 10.112728115881055 -3.667029339798688)"><path d="M0.46 -0.34 C1.67 -1.5, 3.69 -6.94, 6.91 -7.42 C10.14 -7.9, 17.68 -3.94, 19.82 -3.22 M0.04 0.68 C1.44 -0.37, 4.45 -6.19, 7.93 -6.76 C11.41 -7.33, 18.97 -3.42, 20.92 -2.72" stroke="#343a40" stroke-width="1" fill="none"></path></g></g><mask></mask><g stroke-linecap="round"><g transform="translate(87.151995078053 196.72661778258237) rotate(0 29.021961872054817 38.121917531350334)"><path d="M0 0 C22.03 -2.51, 43.9 -4.2, 58.04 -3.81 M0 0 C16.56 -1.7, 34.84 -1.95, 58.04 -3.81 M58.04 -3.81 C59.32 23.75, 56.4 48.84, 57.2 80.05 M58.04 -3.81 C57.82 22.48, 57.78 49.22, 57.2 80.05" stroke="#343a40" stroke-width="2" fill="none"></path></g></g><mask></mask><g stroke-linecap="round"><g transform="translate(33.485289919052775 221.5971434093293) rotate(0 46.04651609268558 30.264396011347287)"><path d="M0 0 C19.8 -1.85, 40.97 -0.8, 92.09 -3.66 M0 0 C36.19 -0.54, 70.88 -2.88, 92.09 -3.66 M92.09 -3.66 C89.43 18.24, 88.49 43.06, 85.57 64.19 M92.09 -3.66 C90.58 19.02, 88.62 42.01, 85.57 64.19" stroke="#343a40" stroke-width="2" fill="none"></path></g></g><mask></mask><g stroke-linecap="round"><g transform="translate(120.34550765003223 287.0747298711151) rotate(0 10.939891801290742 9.65284570702093)"><path d="M-1.03 -0.09 C2.78 3.37, 18.24 17.1, 21.97 20.31 M0.63 -1.18 C4.37 2, 17.78 15.11, 21.07 18.71" stroke="#343a40" stroke-width="2" fill="none"></path></g></g><mask></mask><g stroke-linecap="round"><g transform="translate(144.7993834411518 275.4913150226889) rotate(0 10.939891801290742 1.2870460942699538)"><path d="M0.04 0.46 C3.73 0.88, 17.93 2.09, 21.64 2.52 M-0.6 0.22 C3.03 0.74, 17.28 2.86, 21.09 3.19" stroke="#343a40" stroke-width="2" fill="none"></path></g></g><mask></mask><g stroke-linecap="round"><g transform="translate(91.41116362509547 209.07034208266538) rotate(0 36.2824813723646 -5.012711242235241)" fill-rule="evenodd"><path d="M1.2 -0.4 L30.39 -25.03 L84.48 -26.47 L47.6 15.83 L-10.85 15.75 L1.8 1.16" stroke="none" stroke-width="0" fill="#ffffff" fill-rule="evenodd"></path><path d="M0 0 C9.42 -5.48, 21 -14.05, 31.99 -23.87 M0 0 C9.13 -7.52, 17.15 -13.62, 31.99 -23.87 M31.99 -23.87 C44.9 -23.26, 58.74 -23, 82.59 -24.82 M31.99 -23.87 C45.53 -23.91, 56.71 -24.23, 82.59 -24.82 M82.59 -24.82 C74.4 -14.93, 67.57 -6.5, 49.17 14.8 M82.59 -24.82 C73.6 -13.92, 61.81 -0.46, 49.17 14.8 M49.17 14.8 C36.29 13.88, 21 16.08, -10.03 14.8 M49.17 14.8 C30.91 15.56, 12.38 15.55, -10.03 14.8 M-10.03 14.8 C-7.51 12.09, -3.95 7.87, 3.34 0.48 M-10.03 14.8 C-4.42 9.07, -0.63 3.38, 3.34 0.48 M3.34 0.48 C2.97 0.32, 2.24 0.39, 0 0 M3.34 0.48 C2.68 0.3, 2.08 0.27, 0 0" stroke="#343a40" stroke-width="1" fill="none"></path></g></g><mask></mask><g stroke-linecap="round"><g transform="translate(90.9992037823722 208.61439921294073) rotate(0 36.2824813723646 -5.012711242235241)" fill-rule="evenodd"><path d="M0 0 C0 0, 0 0, 0 0 M0 0 C0 0, 0 0, 0 0 M-8.13 15.45 C-1.03 5.43, 10.7 -4.84, 14.83 -10.96 M-8.13 15.45 C-1.48 8.78, 4.65 1.25, 14.83 -10.96 M-2.49 15.06 C10.25 -1.54, 24.19 -13.77, 30.31 -22.68 M-2.49 15.06 C10.06 0.69, 20.57 -12.47, 30.31 -22.68 M2.5 15.42 C14.12 1.09, 25.56 -13.39, 36.61 -23.83 M2.5 15.42 C11.72 3.97, 21.42 -6.64, 36.61 -23.83 M8.14 15.03 C21.99 0.05, 32.95 -13.4, 41.6 -23.46 M8.14 15.03 C16.7 6.16, 24.72 -4.14, 41.6 -23.46 M13.13 15.39 C25.24 1.47, 36.69 -10.68, 47.24 -23.86 M13.13 15.39 C24.98 2.77, 36.4 -10.44, 47.24 -23.86 M18.77 14.99 C27.45 6.16, 37.51 -6.2, 52.88 -24.25 M18.77 14.99 C29.76 1.75, 42.89 -12.48, 52.88 -24.25 M23.76 15.35 C34 3.24, 48.45 -12.28, 57.87 -23.89 M23.76 15.35 C30.52 8.61, 36.8 -0.31, 57.87 -23.89 M28.74 15.71 C38.54 6.09, 46.24 -1.45, 63.51 -24.29 M28.74 15.71 C42.41 1.97, 53.98 -13, 63.51 -24.29 M34.39 15.32 C42.97 5.18, 52.93 -5.64, 68.5 -23.93 M34.39 15.32 C45.3 2.52, 56.55 -10.11, 68.5 -23.93 M39.37 15.68 C49.71 4.68, 62.26 -7.88, 74.14 -24.32 M39.37 15.68 C46.23 6.8, 53.17 -2.15, 74.14 -24.32 M45.02 15.28 C53.13 2.04, 66.53 -9.1, 79.79 -24.72 M45.02 15.28 C56.78 3.56, 66.61 -9.75, 79.79 -24.72 M-10.13 14.71 C-10.13 14.71, -10.13 14.71, -10.13 14.71 M-10.13 14.71 C-10.13 14.71, -10.13 14.71, -10.13 14.71 M-3.74 14.97 C-4.84 14.04, -6.68 12.56, -7.51 11.69 M-3.74 14.97 C-4.64 14.27, -5.49 13.29, -7.51 11.69 M1.91 14.57 C-0.22 13.06, -3.64 10.73, -4.88 8.67 M1.91 14.57 C-0.34 13.05, -2.58 10.3, -4.88 8.67 M8.31 14.83 C5.69 13.54, 3.91 10.68, -1.51 6.31 M8.31 14.83 C6.02 12.33, 3.75 11.09, -1.51 6.31 M14.7 15.1 C11.43 11.45, 7.56 10.22, 1.12 3.29 M14.7 15.1 C10.17 11, 5.63 6.61, 1.12 3.29 M20.35 14.7 C17.12 8.88, 10.38 5.52, 1.48 -1.7 M20.35 14.7 C13.45 8.68, 8.51 3.23, 1.48 -1.7 M26.74 14.96 C21.86 12.44, 17.53 7.61, 4.86 -4.06 M26.74 14.96 C20.9 9.3, 15.14 5.25, 4.86 -4.06 M32.39 14.57 C22.98 7.36, 14.56 0.93, 8.24 -6.43 M32.39 14.57 C27.97 10.23, 21.19 4.26, 8.24 -6.43 M38.78 14.83 C29.08 7.46, 19.99 -4.21, 11.62 -8.79 M38.78 14.83 C31.86 7.72, 24.18 2.01, 11.62 -8.79 M45.18 15.09 C36.6 6.15, 25.6 -1.93, 14.99 -11.15 M45.18 15.09 C36.98 8.95, 29.02 1.73, 14.99 -11.15 M50.07 14.04 C42.01 5.49, 29.01 -2.48, 18.37 -13.51 M50.07 14.04 C38.22 4.52, 25.33 -7.02, 18.37 -13.51 M52.7 11.02 C43.69 1.93, 32.88 -5.32, 21.75 -15.88 M52.7 11.02 C41.76 1.89, 32.1 -6.63, 21.75 -15.88 M55.32 8 C47.15 -1.19, 36.88 -7.23, 25.13 -18.24 M55.32 8 C47.13 0.81, 38.74 -6.79, 25.13 -18.24 M57.94 4.98 C48.47 -4.18, 37.68 -9.33, 27.76 -21.26 M57.94 4.98 C48.09 -3.65, 39.39 -12.49, 27.76 -21.26 M60.57 1.96 C50.87 -4.92, 38.79 -16.45, 31.13 -23.62 M60.57 1.96 C52.34 -4.82, 43.39 -11.68, 31.13 -23.62 M63.19 -1.05 C53.43 -8.45, 47.67 -15.84, 36.78 -24.02 M63.19 -1.05 C56.63 -5.26, 50.27 -12.29, 36.78 -24.02 M65.06 -4.73 C60.58 -11.59, 53.02 -16.48, 42.42 -24.41 M65.06 -4.73 C58.51 -10.02, 54.32 -13.38, 42.42 -24.41 M67.69 -7.75 C62.94 -11.18, 57.45 -17.89, 48.82 -24.15 M67.69 -7.75 C63.41 -11.48, 57.1 -17.23, 48.82 -24.15 M70.31 -10.77 C65.18 -13.22, 58.72 -18.7, 54.46 -24.54 M70.31 -10.77 C63.22 -15.52, 57.54 -21.11, 54.46 -24.54 M72.93 -13.79 C69.41 -15.85, 65.21 -22.29, 60.86 -24.28 M72.93 -13.79 C70.84 -16.91, 68.17 -18.48, 60.86 -24.28 M75.56 -16.8 C72.53 -19, 72.81 -20.88, 66.5 -24.68 M75.56 -16.8 C72.24 -19.3, 69.03 -22.82, 66.5 -24.68 M78.18 -19.82 C75.5 -21.96, 73.5 -22.98, 72.15 -25.07 M78.18 -19.82 C76.91 -20.72, 75.93 -22.32, 72.15 -25.07 M80.81 -22.84 C79.93 -23.28, 79.35 -24.06, 78.54 -24.81 M80.81 -22.84 C80.12 -23.44, 79.47 -23.85, 78.54 -24.81" stroke="#868e96" stroke-width="0.5" fill="none"></path><path d="M0 0 C9.79 -5.93, 16.15 -11.59, 31.99 -23.87 M0 0 C11.38 -8.84, 24.27 -17.8, 31.99 -23.87 M31.99 -23.87 C47.88 -22.91, 64.32 -25.71, 82.59 -24.82 M31.99 -23.87 C46.39 -24.12, 62.23 -25.07, 82.59 -24.82 M82.59 -24.82 C72.39 -12.13, 58.44 3.83, 49.17 14.8 M82.59 -24.82 C73.05 -13.51, 64.29 -4.53, 49.17 14.8 M49.17 14.8 C32.29 15.79, 13.56 13.15, -10.03 14.8 M49.17 14.8 C30.13 15.75, 10.11 15.14, -10.03 14.8 M-10.03 14.8 C-7.79 11.9, -2.54 8.75, 3.34 0.48 M-10.03 14.8 C-6.11 9.29, -1.48 4.24, 3.34 0.48 M3.34 0.48 C2.78 0.48, 1.28 0.28, 0 0 M3.34 0.48 C2.34 0.28, 1.24 0.11, 0 0" stroke="#343a40" stroke-width="1" fill="none"></path></g></g><mask></mask><g stroke-linecap="round"><g transform="translate(141.12631620471802 221.98162919223245) rotate(0 22.437850322383383 -48.45620867493446)" fill-rule="evenodd"><path d="M-0.25 1.84 L8.9 -53.95 L45.18 -96.31 L34.62 -40.66 L1.21 -0.28" stroke="none" stroke-width="0" fill="#ffffff" fill-rule="evenodd"></path><path d="M0 0 C2.4 -19.14, 7.56 -39.84, 8.12 -52.04 M0 0 C2.21 -12.72, 4.83 -26.63, 8.12 -52.04 M8.12 -52.04 C20.26 -69.03, 34.16 -82.44, 44.88 -96.91 M8.12 -52.04 C19.88 -67.05, 32.84 -80.83, 44.88 -96.91 M44.88 -96.91 C42.31 -80.31, 38.72 -61.72, 34.37 -39.62 M44.88 -96.91 C41.56 -85.24, 39.83 -70.9, 34.37 -39.62 M34.37 -39.62 C26.14 -30.74, 17.69 -18.8, 0 0 M34.37 -39.62 C21.63 -25.13, 8.85 -11.28, 0 0 M0 0 C0 0, 0 0, 0 0 M0 0 C0 0, 0 0, 0 0" stroke="#343a40" stroke-width="2" fill="none"></path></g></g><mask></mask><g stroke-linecap="round"><g transform="translate(79.16003263340644 137.77738293585185) rotate(0 29.540762484994048 24.700663416679475)"><path d="M0.58 1.01 C4.05 5.69, 11.52 19.78, 21.1 27.88 C30.68 35.98, 51.76 45.95, 58.03 49.62 M-0.57 0.5 C2.73 5.35, 10.11 20.69, 20.26 29.11 C30.42 37.54, 53.95 47.98, 60.38 51.06" stroke="#343a40" stroke-width="2" fill="none"></path></g></g><mask></mask><g stroke-linecap="round"><g transform="translate(39.73900478174164 103.5045394612626) rotate(0 46.012696316504844 48.93680353110378)"><path d="M0.21 -0.58 C3.37 9.37, 6.49 45.72, 19.55 60.71 C32.6 75.71, 66.41 83.28, 78.54 89.39 C90.68 95.5, 90.02 96.04, 92.37 97.38 M-1.13 1.73 C2.34 11.82, 8.59 44.44, 21.71 58.7 C34.83 72.97, 65.75 80.71, 77.6 87.3 C89.45 93.88, 90.48 96.5, 92.8 98.22" stroke="#343a40" stroke-width="2" fill="none"></path></g></g><mask></mask></svg>